<svg xmlns="http://www.w3.org/2000/svg" xmlns:xlink="http://www.w3.org/1999/xlink" version="1.1" width="365.219pt" height="280.502pt" viewBox="0 0 365.219 280.502">
<path transform="matrix(1,0,0,-1,74.244,162.60802)" d="M5.97766 0C5.97766 3.3014 3.3014 5.97766 0 5.97766-3.3014 5.97766-5.97766 3.3014-5.97766 0-5.97766-3.3014-3.3014-5.97766 0-5.97766 3.3014-5.97766 5.97766-3.3014 5.97766 0ZM0 0" fill="#0000bf"/>
<path transform="matrix(1,0,0,-1,74.244,162.60802)" stroke-width=".3985" stroke-linecap="butt" stroke-miterlimit="10" stroke-linejoin="miter" fill="none" stroke="#0000bf" d="M5.97766 0C5.97766 3.3014 3.3014 5.97766 0 5.97766-3.3014 5.97766-5.97766 3.3014-5.97766 0-5.97766-3.3014-3.3014-5.97766 0-5.97766 3.3014-5.97766 5.97766-3.3014 5.97766 0ZM0 0"/>
<path transform="matrix(1,0,0,-1,74.244,162.60802)" d="M232.75214 0C232.75214 3.3014 230.07588 5.97766 226.77448 5.97766 223.47306 5.97766 220.79682 3.3014 220.79682 0 220.79682-3.3014 223.47306-5.97766 226.77448-5.97766 230.07588-5.97766 232.75214-3.3014 232.75214 0ZM226.77448 0" fill="#0000bf"/>
<path transform="matrix(1,0,0,-1,74.244,162.60802)" stroke-width=".3985" stroke-linecap="butt" stroke-miterlimit="10" stroke-linejoin="miter" fill="none" stroke="#0000bf" d="M232.75214 0C232.75214 3.3014 230.07588 5.97766 226.77448 5.97766 223.47306 5.97766 220.79682 3.3014 220.79682 0 220.79682-3.3014 223.47306-5.97766 226.77448-5.97766 230.07588-5.97766 232.75214-3.3014 232.75214 0ZM226.77448 0"/>
<path transform="matrix(1,0,0,-1,74.244,162.60802)" d="M232.75214 113.38724C232.75214 116.68864 230.07588 119.3649 226.77448 119.3649 223.47306 119.3649 220.79682 116.68864 220.79682 113.38724 220.79682 110.08582 223.47306 107.40958 226.77448 107.40958 230.07588 107.40958 232.75214 110.08582 232.75214 113.38724ZM226.77448 113.38724" fill="#0000bf"/>
<path transform="matrix(1,0,0,-1,74.244,162.60802)" stroke-width=".3985" stroke-linecap="butt" stroke-miterlimit="10" stroke-linejoin="miter" fill="none" stroke="#0000bf" d="M232.75214 113.38724C232.75214 116.68864 230.07588 119.3649 226.77448 119.3649 223.47306 119.3649 220.79682 116.68864 220.79682 113.38724 220.79682 110.08582 223.47306 107.40958 226.77448 107.40958 230.07588 107.40958 232.75214 110.08582 232.75214 113.38724ZM226.77448 113.38724"/>
<path transform="matrix(1,0,0,-1,74.244,162.60802)" d="M5.97766 113.38724C5.97766 116.68864 3.3014 119.3649 0 119.3649-3.3014 119.3649-5.97766 116.68864-5.97766 113.38724-5.97766 110.08582-3.3014 107.40958 0 107.40958 3.3014 107.40958 5.97766 110.08582 5.97766 113.38724ZM0 113.38724" fill="#0000bf"/>
<path transform="matrix(1,0,0,-1,74.244,162.60802)" stroke-width=".3985" stroke-linecap="butt" stroke-miterlimit="10" stroke-linejoin="miter" fill="none" stroke="#0000bf" d="M5.97766 113.38724C5.97766 116.68864 3.3014 119.3649 0 119.3649-3.3014 119.3649-5.97766 116.68864-5.97766 113.38724-5.97766 110.08582-3.3014 107.40958 0 107.40958 3.3014 107.40958 5.97766 110.08582 5.97766 113.38724ZM0 113.38724"/>
<path transform="matrix(1,0,0,-1,74.244,162.60802)" stroke-width="1.59404" stroke-linecap="butt" stroke-miterlimit="10" stroke-linejoin="miter" fill="none" stroke="#0000bf" d="M0 0V94.25871"/>
<path transform="matrix(0,-1,-1,-0,74.244,68.349308)" d="M14.2804 0C12.52672 .29738 4.81802 1.98247 0 3.81622V-3.81622C4.81802-1.98247 12.52672-.29738 14.2804 0Z" fill="#0000bf"/>
<path transform="matrix(0,-1,-1,-0,74.244,68.349308)" stroke-width="1.59404" stroke-linecap="butt" stroke-miterlimit="10" stroke-linejoin="miter" fill="none" stroke="#0000bf" d="M14.2804 0C12.52672 .29738 4.81802 1.98247 0 3.81622V-3.81622C4.81802-1.98247 12.52672-.29738 14.2804 0Z"/>
<path transform="matrix(1,0,0,-1,74.244,162.60802)" stroke-width="1.59404" stroke-linecap="butt" stroke-miterlimit="10" stroke-linejoin="miter" fill="none" stroke="#0000bf" d="M0 113.38724H207.64597"/>
<path transform="matrix(1,0,0,-1,281.88996,49.22078)" d="M14.2804 0C12.52672 .29738 4.81802 1.98247 0 3.81622V-3.81622C4.81802-1.98247 12.52672-.29738 14.2804 0Z" fill="#0000bf"/>
<path transform="matrix(1,0,0,-1,281.88996,49.22078)" stroke-width="1.59404" stroke-linecap="butt" stroke-miterlimit="10" stroke-linejoin="miter" fill="none" stroke="#0000bf" d="M14.2804 0C12.52672 .29738 4.81802 1.98247 0 3.81622V-3.81622C4.81802-1.98247 12.52672-.29738 14.2804 0Z"/>
<path transform="matrix(1,0,0,-1,74.244,162.60802)" stroke-width="1.59404" stroke-linecap="butt" stroke-miterlimit="10" stroke-linejoin="miter" fill="none" stroke="#0000bf" d="M226.77448 113.38724 17.10783 8.55377"/>
<path transform="matrix(-.89436,.44717,.44717,.89436,91.35185,154.05423)" d="M14.2804 0C12.52672 .29738 4.81802 1.98247 0 3.81622V-3.81622C4.81802-1.98247 12.52672-.29738 14.2804 0Z" fill="#0000bf"/>
<path transform="matrix(-.89436,.44717,.44717,.89436,91.35185,154.05423)" stroke-width="1.59404" stroke-linecap="butt" stroke-miterlimit="10" stroke-linejoin="miter" fill="none" stroke="#0000bf" d="M14.2804 0C12.52672 .29738 4.81802 1.98247 0 3.81622V-3.81622C4.81802-1.98247 12.52672-.29738 14.2804 0Z"/>
<path transform="matrix(1,0,0,-1,74.244,162.60802)" stroke-width="1.59404" stroke-linecap="butt" stroke-miterlimit="10" stroke-linejoin="miter" fill="none" stroke="#0000bf" d="M0 0H207.64597"/>
<path transform="matrix(1,0,0,-1,281.88996,162.60802)" d="M14.2804 0C12.52672 .29738 4.81802 1.98247 0 3.81622V-3.81622C4.81802-1.98247 12.52672-.29738 14.2804 0Z" fill="#0000bf"/>
<path transform="matrix(1,0,0,-1,281.88996,162.60802)" stroke-width="1.59404" stroke-linecap="butt" stroke-miterlimit="10" stroke-linejoin="miter" fill="none" stroke="#0000bf" d="M14.2804 0C12.52672 .29738 4.81802 1.98247 0 3.81622V-3.81622C4.81802-1.98247 12.52672-.29738 14.2804 0Z"/>
<path transform="matrix(1,0,0,-1,74.244,162.60802)" stroke-width="1.59404" stroke-linecap="butt" stroke-miterlimit="10" stroke-linejoin="miter" fill="none" stroke="#0000bf" d="M226.77448 0V94.25871"/>
<path transform="matrix(0,-1,-1,-0,301.0185,68.349308)" d="M14.2804 0C12.52672 .29738 4.81802 1.98247 0 3.81622V-3.81622C4.81802-1.98247 12.52672-.29738 14.2804 0Z" fill="#0000bf"/>
<path transform="matrix(0,-1,-1,-0,301.0185,68.349308)" stroke-width="1.59404" stroke-linecap="butt" stroke-miterlimit="10" stroke-linejoin="miter" fill="none" stroke="#0000bf" d="M14.2804 0C12.52672 .29738 4.81802 1.98247 0 3.81622V-3.81622C4.81802-1.98247 12.52672-.29738 14.2804 0Z"/>
<path transform="matrix(1,0,0,-1,74.244,162.60802)" d="M62.67128 70.867C62.67128 74.16843 59.99503 76.84467 56.69362 76.84467 53.3922 76.84467 50.71596 74.16843 50.71596 70.867 50.71596 67.5656 53.3922 64.88934 56.69362 64.88934 59.99503 64.88934 62.67128 67.5656 62.67128 70.867ZM56.69362 70.867" fill="#bf0000"/>
<path transform="matrix(1,0,0,-1,74.244,162.60802)" stroke-width=".3985" stroke-linecap="butt" stroke-miterlimit="10" stroke-linejoin="miter" fill="none" stroke="#bf0000" d="M62.67128 70.867C62.67128 74.16843 59.99503 76.84467 56.69362 76.84467 53.3922 76.84467 50.71596 74.16843 50.71596 70.867 50.71596 67.5656 53.3922 64.88934 56.69362 64.88934 59.99503 64.88934 62.67128 67.5656 62.67128 70.867ZM56.69362 70.867"/>
<path transform="matrix(1,0,0,-1,74.244,162.60802)" d="M176.05852 42.5202C176.05852 45.82161 173.38227 48.49786 170.08086 48.49786 166.77944 48.49786 164.1032 45.82161 164.1032 42.5202 164.1032 39.21878 166.77944 36.54254 170.08086 36.54254 173.38227 36.54254 176.05852 39.21878 176.05852 42.5202ZM170.08086 42.5202" fill="#bf0000"/>
<path transform="matrix(1,0,0,-1,74.244,162.60802)" stroke-width=".3985" stroke-linecap="butt" stroke-miterlimit="10" stroke-linejoin="miter" fill="none" stroke="#bf0000" d="M176.05852 42.5202C176.05852 45.82161 173.38227 48.49786 170.08086 48.49786 166.77944 48.49786 164.1032 45.82161 164.1032 42.5202 164.1032 39.21878 166.77944 36.54254 170.08086 36.54254 173.38227 36.54254 176.05852 39.21878 176.05852 42.5202ZM170.08086 42.5202"/>
<path transform="matrix(1,0,0,-1,74.244,162.60802)" d="M147.7117-42.5202C147.7117-39.21878 145.03546-36.54254 141.73404-36.54254 138.43264-36.54254 135.75638-39.21878 135.75638-42.5202 135.75638-45.82161 138.43264-48.49786 141.73404-48.49786 145.03546-48.49786 147.7117-45.82161 147.7117-42.5202ZM141.73404-42.5202" fill="#bf0000"/>
<path transform="matrix(1,0,0,-1,74.244,162.60802)" stroke-width=".3985" stroke-linecap="butt" stroke-miterlimit="10" stroke-linejoin="miter" fill="none" stroke="#bf0000" d="M147.7117-42.5202C147.7117-39.21878 145.03546-36.54254 141.73404-36.54254 138.43264-36.54254 135.75638-39.21878 135.75638-42.5202 135.75638-45.82161 138.43264-48.49786 141.73404-48.49786 145.03546-48.49786 147.7117-45.82161 147.7117-42.5202ZM141.73404-42.5202"/>
<path transform="matrix(1,0,0,-1,74.244,162.60802)" stroke-width="1.59404" stroke-linecap="butt" stroke-miterlimit="10" stroke-linejoin="miter" fill="none" stroke="#bf0000" d="M141.73404-42.5202 164.03227 24.37416"/>
<path transform="matrix(.31621,-.94864,-.94864,-.31621,238.27626,138.23387)" d="M14.2804 0C12.52672 .29738 4.81802 1.98247 0 3.81622V-3.81622C4.81802-1.98247 12.52672-.29738 14.2804 0Z" fill="#bf0000"/>
<path transform="matrix(.31621,-.94864,-.94864,-.31621,238.27626,138.23387)" stroke-width="1.59404" stroke-linecap="butt" stroke-miterlimit="10" stroke-linejoin="miter" fill="none" stroke="#bf0000" d="M14.2804 0C12.52672 .29738 4.81802 1.98247 0 3.81622V-3.81622C4.81802-1.98247 12.52672-.29738 14.2804 0Z"/>
<path transform="matrix(1,0,0,-1,74.244,162.60802)" stroke-width="1.59404" stroke-linecap="butt" stroke-miterlimit="10" stroke-linejoin="miter" fill="none" stroke="#bf0000" d="M56.69362 70.867 151.52356 47.15901"/>
<path transform="matrix(.97014,.24251,.24251,-.97014,225.76755,115.44899)" d="M14.2804 0C12.52672 .29738 4.81802 1.98247 0 3.81622V-3.81622C4.81802-1.98247 12.52672-.29738 14.2804 0Z" fill="#bf0000"/>
<path transform="matrix(.97014,.24251,.24251,-.97014,225.76755,115.44899)" stroke-width="1.59404" stroke-linecap="butt" stroke-miterlimit="10" stroke-linejoin="miter" fill="none" stroke="#bf0000" d="M14.2804 0C12.52672 .29738 4.81802 1.98247 0 3.81622V-3.81622C4.81802-1.98247 12.52672-.29738 14.2804 0Z"/>
<path transform="matrix(1,0,0,-1,74.244,162.60802)" stroke-width="1.59404" stroke-linecap="butt" stroke-miterlimit="10" stroke-linejoin="miter" fill="none" stroke="#bf0000" d="M141.73404-42.5202C185.57642-42.5202 220.22988-37.20517 244.80857-29.23262 269.38728-21.26009 283.89125-10.63004 287.4346 0 290.97795 10.63004 283.56068 21.26009 264.297 29.23262 245.03334 37.20517 213.92324 42.5202 189.20937 42.5202"/>
<path transform="matrix(-1,-0,0,1,263.45338,120.087818)" d="M14.2804 0C12.52672 .29738 4.81802 1.98247 0 3.81622V-3.81622C4.81802-1.98247 12.52672-.29738 14.2804 0Z" fill="#bf0000"/>
<path transform="matrix(-1,-0,0,1,263.45338,120.087818)" stroke-width="1.59404" stroke-linecap="butt" stroke-miterlimit="10" stroke-linejoin="miter" fill="none" stroke="#bf0000" d="M14.2804 0C12.52672 .29738 4.81802 1.98247 0 3.81622V-3.81622C4.81802-1.98247 12.52672-.29738 14.2804 0Z"/>
<path transform="matrix(1,0,0,-1,74.244,162.60802)" stroke-width=".3985" stroke-linecap="butt" stroke-miterlimit="10" stroke-linejoin="miter" fill="none" stroke="#000000" d=""/>
<path transform="matrix(1,0,0,-1,74.244,162.60802)" stroke-width="1.59404" stroke-linecap="butt" stroke-miterlimit="10" stroke-linejoin="miter" fill="none" stroke="#bf0000" d="M56.69362 70.867C15.11818 70.86699-10.12158 60.22533-22.15327 45.15155-34.18498 30.0778-33.00862 10.57196-21.7518-7.15639-10.49498-24.88475 10.8423-40.83563 39.13246-48.79947 67.42265-56.76329 102.6657-56.74007 123.75932-49.06235"/>
<path transform="matrix(.93968,-.34201,-.34201,-.93968,198.00331,211.67038)" d="M14.2804 0C12.52672 .29738 4.81802 1.98247 0 3.81622V-3.81622C4.81802-1.98247 12.52672-.29738 14.2804 0Z" fill="#bf0000"/>
<path transform="matrix(.93968,-.34201,-.34201,-.93968,198.00331,211.67038)" stroke-width="1.59404" stroke-linecap="butt" stroke-miterlimit="10" stroke-linejoin="miter" fill="none" stroke="#bf0000" d="M14.2804 0C12.52672 .29738 4.81802 1.98247 0 3.81622V-3.81622C4.81802-1.98247 12.52672-.29738 14.2804 0Z"/>
<path transform="matrix(1,0,0,-1,74.244,162.60802)" stroke-width=".3985" stroke-linecap="butt" stroke-miterlimit="10" stroke-linejoin="miter" fill="none" stroke="#000000" d=""/>
<path transform="matrix(1,0,0,-1,74.244,162.60802)" stroke-width="1.59404" stroke-linecap="butt" stroke-miterlimit="10" stroke-linejoin="miter" fill="none" stroke="#bf0000" d="M56.69362 70.867C32.44127 112.87338 11.68347 137.96196-5.58728 150.28639-22.85806 162.61083-36.64183 162.17111-46.94614 153.12091-67.55473 135.02053-74.2454 82.47826-67.07838 28.72346-59.91136-25.03131-38.88666-79.9986-4.06451-102.94899 13.34654-114.4242 34.20697-117.89519 58.50923-109.20827 82.81151-100.52138 110.55562-79.67657 129.43869-57.17305"/>
<path transform="matrix(.64278,-.76602,-.76602,-.64278,203.68268,219.78108)" d="M14.2804 0C12.52672 .29738 4.81802 1.98247 0 3.81622V-3.81622C4.81802-1.98247 12.52672-.29738 14.2804 0Z" fill="#bf0000"/>
<path transform="matrix(.64278,-.76602,-.76602,-.64278,203.68268,219.78108)" stroke-width="1.59404" stroke-linecap="butt" stroke-miterlimit="10" stroke-linejoin="miter" fill="none" stroke="#bf0000" d="M14.2804 0C12.52672 .29738 4.81802 1.98247 0 3.81622V-3.81622C4.81802-1.98247 12.52672-.29738 14.2804 0Z"/>
<path transform="matrix(1,0,0,-1,74.244,162.60802)" stroke-width=".3985" stroke-linecap="butt" stroke-miterlimit="10" stroke-linejoin="miter" fill="none" stroke="#000000" d=""/>
<path transform="matrix(1,0,0,-1,74.244,162.60802)" stroke-width="1.59404" stroke-linecap="butt" stroke-dasharray="2.98883,2.98883" stroke-miterlimit="10" stroke-linejoin="miter" fill="none" stroke="#0000bf" d="M256.66279 113.38724C256.66279 129.8943 243.28154 143.27555 226.77448 143.27555 210.26741 143.27555 196.88617 129.8943 196.88617 113.38724 196.88617 96.88016 210.26741 83.49893 226.77448 83.49893 243.28154 83.49893 256.66279 96.88016 256.66279 113.38724ZM226.77448 113.38724"/>
<path transform="matrix(1,0,0,-1,74.244,162.60802)" stroke-width="1.59404" stroke-linecap="butt" stroke-dasharray="2.98883,2.98883" stroke-miterlimit="10" stroke-linejoin="miter" fill="none" stroke="#bf0000" d="M171.62235-42.5202C171.62235-26.01314 158.2411-12.6319 141.73404-12.6319 125.22697-12.6319 111.84573-26.01314 111.84573-42.5202 111.84573-59.02727 125.22697-72.40851 141.73404-72.40851 158.2411-72.40851 171.62235-59.02727 171.62235-42.5202ZM141.73404-42.5202"/>
</svg>
