<svg xmlns="http://www.w3.org/2000/svg" xmlns:xlink="http://www.w3.org/1999/xlink" version="1.1" width="116.722pt" height="131.912pt" viewBox="0 0 116.722 131.912">
<path transform="matrix(1,0,0,-1,57.546,65.141)" stroke-width=".79701" stroke-linecap="butt" stroke-miterlimit="10" stroke-linejoin="miter" fill="none" stroke="#000000" d="M49.09824 28.3468 4.03775 54.36244"/>
<path transform="matrix(-.86601,-.49998,-.49998,.86601,61.58377,10.778561)" d="M4.66248 0C3.28098 .25902 1.0361 1.0361-.51805 1.94269V-1.94269C1.0361-1.0361 3.28098-.25902 4.66248 0"/>
<path transform="matrix(1,0,0,-1,57.546,65.141)" stroke-width=".79701" stroke-linecap="butt" stroke-miterlimit="10" stroke-linejoin="miter" fill="none" stroke="#000000" d="M49.09824-28.3468V23.68433"/>
<path transform="matrix(0,-1,-1,-0,106.64424,41.45667)" d="M4.66248 0C3.28098 .25902 1.0361 1.0361-.51805 1.94269V-1.94269C1.0361-1.0361 3.28098-.25902 4.66248 0"/>
<path transform="matrix(1,0,0,-1,57.546,65.141)" stroke-width=".79701" stroke-linecap="butt" stroke-miterlimit="10" stroke-linejoin="miter" fill="none" stroke="#000000" d="M49.09824-28.3468 4.03775-54.36244"/>
<path transform="matrix(-.86601,.49998,.49998,.86601,61.58377,119.50343)" d="M4.66248 0C3.28098 .25902 1.0361 1.0361-.51805 1.94269V-1.94269C1.0361-1.0361 3.28098-.25902 4.66248 0"/>
<path transform="matrix(1,0,0,-1,57.546,65.141)" stroke-width=".79701" stroke-linecap="butt" stroke-miterlimit="10" stroke-linejoin="miter" fill="none" stroke="#000000" d="M0 56.69362-45.06049 30.67796"/>
<path transform="matrix(-.86601,.49998,.49998,.86601,12.485531,34.46304)" d="M4.66248 0C3.28098 .25902 1.0361 1.0361-.51805 1.94269V-1.94269C1.0361-1.0361 3.28098-.25902 4.66248 0"/>
<path transform="matrix(1,0,0,-1,57.546,65.141)" stroke-width=".79701" stroke-linecap="butt" stroke-miterlimit="10" stroke-linejoin="miter" fill="none" stroke="#000000" d="M-49.09824-28.3468V23.68433"/>
<path transform="matrix(0,-1,-1,-0,8.447762,41.45667)" d="M4.66248 0C3.28098 .25902 1.0361 1.0361-.51805 1.94269V-1.94269C1.0361-1.0361 3.28098-.25902 4.66248 0"/>
<path transform="matrix(1,0,0,-1,57.546,65.141)" stroke-width=".79701" stroke-linecap="butt" stroke-miterlimit="10" stroke-linejoin="miter" fill="none" stroke="#000000" d="M0-56.69362-45.06049-30.67796"/>
<path transform="matrix(-.86601,-.49998,-.49998,.86601,12.485531,95.818958)" d="M4.66248 0C3.28098 .25902 1.0361 1.0361-.51805 1.94269V-1.94269C1.0361-1.0361 3.28098-.25902 4.66248 0"/>
<path transform="matrix(1,0,0,-1,57.546,65.141)" d="M50.50728 28.3468C50.50728 29.12498 49.87642 29.75584 49.09824 29.75584 48.32004 29.75584 47.6892 29.12498 47.6892 28.3468 47.6892 27.56862 48.32004 26.93776 49.09824 26.93776 49.87642 26.93776 50.50728 27.56862 50.50728 28.3468ZM49.09824 28.3468"/>
<path transform="matrix(1,0,0,-1,57.546,65.141)" stroke-width=".3985" stroke-linecap="butt" stroke-miterlimit="10" stroke-linejoin="miter" fill="none" stroke="#000000" d="M50.50728 28.3468C50.50728 29.12498 49.87642 29.75584 49.09824 29.75584 48.32004 29.75584 47.6892 29.12498 47.6892 28.3468 47.6892 27.56862 48.32004 26.93776 49.09824 26.93776 49.87642 26.93776 50.50728 27.56862 50.50728 28.3468ZM49.09824 28.3468"/>
<path transform="matrix(1,0,0,-1,57.546,65.141)" d="M1.40903 56.69362C1.40903 57.4718 .77818 58.10265 0 58.10265-.77818 58.10265-1.40903 57.4718-1.40903 56.69362-1.40903 55.91542-.77818 55.28458 0 55.28458 .77818 55.28458 1.40903 55.91542 1.40903 56.69362ZM0 56.69362"/>
<path transform="matrix(1,0,0,-1,57.546,65.141)" stroke-width=".3985" stroke-linecap="butt" stroke-miterlimit="10" stroke-linejoin="miter" fill="none" stroke="#000000" d="M1.40903 56.69362C1.40903 57.4718 .77818 58.10265 0 58.10265-.77818 58.10265-1.40903 57.4718-1.40903 56.69362-1.40903 55.91542-.77818 55.28458 0 55.28458 .77818 55.28458 1.40903 55.91542 1.40903 56.69362ZM0 56.69362"/>
<path transform="matrix(1,0,0,-1,57.546,65.141)" d="M-47.6892 28.3468C-47.6892 29.12498-48.32004 29.75584-49.09824 29.75584-49.87642 29.75584-50.50728 29.12498-50.50728 28.3468-50.50728 27.56862-49.87642 26.93776-49.09824 26.93776-48.32004 26.93776-47.6892 27.56862-47.6892 28.3468ZM-49.09824 28.3468"/>
<path transform="matrix(1,0,0,-1,57.546,65.141)" stroke-width=".3985" stroke-linecap="butt" stroke-miterlimit="10" stroke-linejoin="miter" fill="none" stroke="#000000" d="M-47.6892 28.3468C-47.6892 29.12498-48.32004 29.75584-49.09824 29.75584-49.87642 29.75584-50.50728 29.12498-50.50728 28.3468-50.50728 27.56862-49.87642 26.93776-49.09824 26.93776-48.32004 26.93776-47.6892 27.56862-47.6892 28.3468ZM-49.09824 28.3468"/>
<path transform="matrix(1,0,0,-1,57.546,65.141)" d="M-47.6892-28.3468C-47.6892-27.56862-48.32004-26.93776-49.09824-26.93776-49.87642-26.93776-50.50728-27.56862-50.50728-28.3468-50.50728-29.12498-49.87642-29.75584-49.09824-29.75584-48.32004-29.75584-47.6892-29.12498-47.6892-28.3468ZM-49.09824-28.3468"/>
<path transform="matrix(1,0,0,-1,57.546,65.141)" stroke-width=".3985" stroke-linecap="butt" stroke-miterlimit="10" stroke-linejoin="miter" fill="none" stroke="#000000" d="M-47.6892-28.3468C-47.6892-27.56862-48.32004-26.93776-49.09824-26.93776-49.87642-26.93776-50.50728-27.56862-50.50728-28.3468-50.50728-29.12498-49.87642-29.75584-49.09824-29.75584-48.32004-29.75584-47.6892-29.12498-47.6892-28.3468ZM-49.09824-28.3468"/>
<path transform="matrix(1,0,0,-1,57.546,65.141)" d="M1.40903-56.69362C1.40903-55.91542 .77818-55.28458 0-55.28458-.77818-55.28458-1.40903-55.91542-1.40903-56.69362-1.40903-57.4718-.77818-58.10265 0-58.10265 .77818-58.10265 1.40903-57.4718 1.40903-56.69362ZM0-56.69362"/>
<path transform="matrix(1,0,0,-1,57.546,65.141)" stroke-width=".3985" stroke-linecap="butt" stroke-miterlimit="10" stroke-linejoin="miter" fill="none" stroke="#000000" d="M1.40903-56.69362C1.40903-55.91542 .77818-55.28458 0-55.28458-.77818-55.28458-1.40903-55.91542-1.40903-56.69362-1.40903-57.4718-.77818-58.10265 0-58.10265 .77818-58.10265 1.40903-57.4718 1.40903-56.69362ZM0-56.69362"/>
<path transform="matrix(1,0,0,-1,57.546,65.141)" d="M50.50728-28.3468C50.50728-27.56862 49.87642-26.93776 49.09824-26.93776 48.32004-26.93776 47.6892-27.56862 47.6892-28.3468 47.6892-29.12498 48.32004-29.75584 49.09824-29.75584 49.87642-29.75584 50.50728-29.12498 50.50728-28.3468ZM49.09824-28.3468"/>
<path transform="matrix(1,0,0,-1,57.546,65.141)" stroke-width=".3985" stroke-linecap="butt" stroke-miterlimit="10" stroke-linejoin="miter" fill="none" stroke="#000000" d="M50.50728-28.3468C50.50728-27.56862 49.87642-26.93776 49.09824-26.93776 48.32004-26.93776 47.6892-27.56862 47.6892-28.3468 47.6892-29.12498 48.32004-29.75584 49.09824-29.75584 49.87642-29.75584 50.50728-29.12498 50.50728-28.3468ZM49.09824-28.3468"/>
<path transform="matrix(1,0,0,-1,57.546,65.141)" stroke-width=".79701" stroke-linecap="butt" stroke-miterlimit="10" stroke-linejoin="miter" fill="none" stroke="#ff0000" d="M-42.00981-31.44838V31.44838C-42.00981 33.64932-43.79398 35.43349-45.99492 35.43349H-52.1981C-54.39905 35.43349-56.18321 33.64932-56.18321 31.44838V-31.44838C-56.18321-33.64932-54.39905-35.43349-52.1981-35.43349H-45.99492C-43.79398-35.43349-42.00981-33.64932-42.00981-31.44838ZM-56.18321 35.43349"/>
<path transform="matrix(1,0,0,-1,57.546,65.141)" stroke-width=".79701" stroke-linecap="butt" stroke-miterlimit="10" stroke-linejoin="miter" fill="none" stroke="#ff0000" d="M48.24014-20.6574-6.23033-52.10591C-8.13637-53.20634-8.78941-55.64352-7.68898-57.54956L-4.58728-62.9218C-3.48686-64.82784-1.04967-65.48088 .85635-64.38046L55.32683-32.93195C57.23286-31.83153 57.88593-29.39433 56.78549-27.4883L53.68379-22.11606C52.58336-20.21002 50.14618-19.55698 48.24014-20.6574ZM-2.59479-66.37296"/>
<path transform="matrix(1,0,0,-1,57.546,65.141)" stroke-width=".79701" stroke-linecap="butt" stroke-miterlimit="10" stroke-linejoin="miter" fill="none" stroke="#0000ff" d="M1.9925-60.32915 53.24303 28.43898C54.34344 30.34503 53.45135 31.89014 51.25041 31.89014H-51.25041C-53.45135 31.89014-54.34344 30.34503-53.24303 28.43898L-1.9925-60.32915C-.89206-62.23518 .89206-62.23518 1.9925-60.32915Z"/>
</svg>
