<svg xmlns="http://www.w3.org/2000/svg" xmlns:xlink="http://www.w3.org/1999/xlink" version="1.1" width="105.854pt" height="108.245pt" viewBox="0 0 105.854 108.245">
<path transform="matrix(1,0,0,-1,3.321,49.360006)" stroke-width=".3985" stroke-linecap="butt" stroke-miterlimit="10" stroke-linejoin="miter" fill="none" stroke="#929292" d="M0 0H42.5202"/>
<path transform="matrix(1,0,0,-1,3.321,49.360006)" stroke-width="1.59404" stroke-linecap="butt" stroke-miterlimit="10" stroke-linejoin="miter" fill="none" stroke="#000000" d="M42.5202 0V42.5202"/>
<path transform="matrix(1,0,0,-1,3.321,49.360006)" stroke-width="1.59404" stroke-linecap="butt" stroke-miterlimit="10" stroke-linejoin="miter" fill="none" stroke="#000000" d="M0 0 21.2601 21.2601"/>
<path transform="matrix(1,0,0,-1,3.321,49.360006)" stroke-width=".3985" stroke-linecap="butt" stroke-miterlimit="10" stroke-linejoin="miter" fill="none" stroke="#929292" d="M42.5202 42.5202 21.2601 21.2601"/>
<path transform="matrix(1,0,0,-1,3.321,49.360006)" stroke-width="1.59404" stroke-linecap="butt" stroke-miterlimit="10" stroke-linejoin="miter" fill="none" stroke="#000000" d="M42.5202 42.5202H0"/>
<path transform="matrix(1,0,0,-1,3.321,49.360006)" stroke-width="1.59404" stroke-linecap="butt" stroke-miterlimit="10" stroke-linejoin="miter" fill="none" stroke="#000000" d="M0 42.5202V0"/>
<path transform="matrix(1,0,0,-1,3.321,49.360006)" d="M1.99255 0C1.99255 1.10046 1.10046 1.99255 0 1.99255-1.10046 1.99255-1.99255 1.10046-1.99255 0-1.99255-1.10046-1.10046-1.99255 0-1.99255 1.10046-1.99255 1.99255-1.10046 1.99255 0ZM0 0"/>
<path transform="matrix(1,0,0,-1,3.321,49.360006)" stroke-width=".3985" stroke-linecap="butt" stroke-miterlimit="10" stroke-linejoin="miter" fill="none" stroke="#000000" d="M1.99255 0C1.99255 1.10046 1.10046 1.99255 0 1.99255-1.10046 1.99255-1.99255 1.10046-1.99255 0-1.99255-1.10046-1.10046-1.99255 0-1.99255 1.10046-1.99255 1.99255-1.10046 1.99255 0ZM0 0"/>
<path transform="matrix(1,0,0,-1,3.321,49.360006)" d="M44.51276 0C44.51276 1.10046 43.62067 1.99255 42.5202 1.99255 41.41972 1.99255 40.52765 1.10046 40.52765 0 40.52765-1.10046 41.41972-1.99255 42.5202-1.99255 43.62067-1.99255 44.51276-1.10046 44.51276 0ZM42.5202 0"/>
<path transform="matrix(1,0,0,-1,3.321,49.360006)" stroke-width=".3985" stroke-linecap="butt" stroke-miterlimit="10" stroke-linejoin="miter" fill="none" stroke="#000000" d="M44.51276 0C44.51276 1.10046 43.62067 1.99255 42.5202 1.99255 41.41972 1.99255 40.52765 1.10046 40.52765 0 40.52765-1.10046 41.41972-1.99255 42.5202-1.99255 43.62067-1.99255 44.51276-1.10046 44.51276 0ZM42.5202 0"/>
<path transform="matrix(1,0,0,-1,3.321,49.360006)" d="M44.51276 42.5202C44.51276 43.62067 43.62067 44.51276 42.5202 44.51276 41.41972 44.51276 40.52765 43.62067 40.52765 42.5202 40.52765 41.41972 41.41972 40.52765 42.5202 40.52765 43.62067 40.52765 44.51276 41.41972 44.51276 42.5202ZM42.5202 42.5202"/>
<path transform="matrix(1,0,0,-1,3.321,49.360006)" stroke-width=".3985" stroke-linecap="butt" stroke-miterlimit="10" stroke-linejoin="miter" fill="none" stroke="#000000" d="M44.51276 42.5202C44.51276 43.62067 43.62067 44.51276 42.5202 44.51276 41.41972 44.51276 40.52765 43.62067 40.52765 42.5202 40.52765 41.41972 41.41972 40.52765 42.5202 40.52765 43.62067 40.52765 44.51276 41.41972 44.51276 42.5202ZM42.5202 42.5202"/>
<path transform="matrix(1,0,0,-1,3.321,49.360006)" d="M1.99255 42.5202C1.99255 43.62067 1.10046 44.51276 0 44.51276-1.10046 44.51276-1.99255 43.62067-1.99255 42.5202-1.99255 41.41972-1.10046 40.52765 0 40.52765 1.10046 40.52765 1.99255 41.41972 1.99255 42.5202ZM0 42.5202"/>
<path transform="matrix(1,0,0,-1,3.321,49.360006)" stroke-width=".3985" stroke-linecap="butt" stroke-miterlimit="10" stroke-linejoin="miter" fill="none" stroke="#000000" d="M1.99255 42.5202C1.99255 43.62067 1.10046 44.51276 0 44.51276-1.10046 44.51276-1.99255 43.62067-1.99255 42.5202-1.99255 41.41972-1.10046 40.52765 0 40.52765 1.10046 40.52765 1.99255 41.41972 1.99255 42.5202ZM0 42.5202"/>
<path transform="matrix(1,0,0,-1,3.321,49.360006)" d="M23.25266 21.2601C23.25266 22.36057 22.36057 23.25266 21.2601 23.25266 20.15962 23.25266 19.26755 22.36057 19.26755 21.2601 19.26755 20.15962 20.15962 19.26755 21.2601 19.26755 22.36057 19.26755 23.25266 20.15962 23.25266 21.2601ZM21.2601 21.2601"/>
<path transform="matrix(1,0,0,-1,3.321,49.360006)" stroke-width=".3985" stroke-linecap="butt" stroke-miterlimit="10" stroke-linejoin="miter" fill="none" stroke="#000000" d="M23.25266 21.2601C23.25266 22.36057 22.36057 23.25266 21.2601 23.25266 20.15962 23.25266 19.26755 22.36057 19.26755 21.2601 19.26755 20.15962 20.15962 19.26755 21.2601 19.26755 22.36057 19.26755 23.25266 20.15962 23.25266 21.2601ZM21.2601 21.2601"/>
<path transform="matrix(1,0,0,-1,3.321,49.360006)" stroke-width=".3985" stroke-linecap="butt" stroke-miterlimit="10" stroke-linejoin="miter" fill="none" stroke="#929292" d="M56.69362 0H99.21382"/>
<path transform="matrix(1,0,0,-1,3.321,49.360006)" stroke-width="1.59404" stroke-linecap="butt" stroke-miterlimit="10" stroke-linejoin="miter" fill="none" stroke="#000000" d="M99.21382 0V42.5202"/>
<path transform="matrix(1,0,0,-1,3.321,49.360006)" stroke-width="1.59404" stroke-linecap="butt" stroke-miterlimit="10" stroke-linejoin="miter" fill="none" stroke="#000000" d="M56.69362 0 77.95372 21.2601"/>
<path transform="matrix(1,0,0,-1,3.321,49.360006)" stroke-width="1.59404" stroke-linecap="butt" stroke-miterlimit="10" stroke-linejoin="miter" fill="none" stroke="#000000" d="M77.95372 21.2601 99.21382 42.5202"/>
<path transform="matrix(1,0,0,-1,3.321,49.360006)" stroke-width=".3985" stroke-linecap="butt" stroke-miterlimit="10" stroke-linejoin="miter" fill="none" stroke="#929292" d="M99.21382 42.5202H56.69362"/>
<path transform="matrix(1,0,0,-1,3.321,49.360006)" stroke-width="1.59404" stroke-linecap="butt" stroke-miterlimit="10" stroke-linejoin="miter" fill="none" stroke="#000000" d="M56.69362 42.5202V0"/>
<path transform="matrix(1,0,0,-1,3.321,49.360006)" d="M58.68617 0C58.68617 1.10046 57.79408 1.99255 56.69362 1.99255 55.59314 1.99255 54.70107 1.10046 54.70107 0 54.70107-1.10046 55.59314-1.99255 56.69362-1.99255 57.79408-1.99255 58.68617-1.10046 58.68617 0ZM56.69362 0"/>
<path transform="matrix(1,0,0,-1,3.321,49.360006)" stroke-width=".3985" stroke-linecap="butt" stroke-miterlimit="10" stroke-linejoin="miter" fill="none" stroke="#000000" d="M58.68617 0C58.68617 1.10046 57.79408 1.99255 56.69362 1.99255 55.59314 1.99255 54.70107 1.10046 54.70107 0 54.70107-1.10046 55.59314-1.99255 56.69362-1.99255 57.79408-1.99255 58.68617-1.10046 58.68617 0ZM56.69362 0"/>
<path transform="matrix(1,0,0,-1,3.321,49.360006)" d="M101.20638 0C101.20638 1.10046 100.31429 1.99255 99.21382 1.99255 98.11334 1.99255 97.22127 1.10046 97.22127 0 97.22127-1.10046 98.11334-1.99255 99.21382-1.99255 100.31429-1.99255 101.20638-1.10046 101.20638 0ZM99.21382 0"/>
<path transform="matrix(1,0,0,-1,3.321,49.360006)" stroke-width=".3985" stroke-linecap="butt" stroke-miterlimit="10" stroke-linejoin="miter" fill="none" stroke="#000000" d="M101.20638 0C101.20638 1.10046 100.31429 1.99255 99.21382 1.99255 98.11334 1.99255 97.22127 1.10046 97.22127 0 97.22127-1.10046 98.11334-1.99255 99.21382-1.99255 100.31429-1.99255 101.20638-1.10046 101.20638 0ZM99.21382 0"/>
<path transform="matrix(1,0,0,-1,3.321,49.360006)" d="M101.20638 42.5202C101.20638 43.62067 100.31429 44.51276 99.21382 44.51276 98.11334 44.51276 97.22127 43.62067 97.22127 42.5202 97.22127 41.41972 98.11334 40.52765 99.21382 40.52765 100.31429 40.52765 101.20638 41.41972 101.20638 42.5202ZM99.21382 42.5202"/>
<path transform="matrix(1,0,0,-1,3.321,49.360006)" stroke-width=".3985" stroke-linecap="butt" stroke-miterlimit="10" stroke-linejoin="miter" fill="none" stroke="#000000" d="M101.20638 42.5202C101.20638 43.62067 100.31429 44.51276 99.21382 44.51276 98.11334 44.51276 97.22127 43.62067 97.22127 42.5202 97.22127 41.41972 98.11334 40.52765 99.21382 40.52765 100.31429 40.52765 101.20638 41.41972 101.20638 42.5202ZM99.21382 42.5202"/>
<path transform="matrix(1,0,0,-1,3.321,49.360006)" d="M58.68617 42.5202C58.68617 43.62067 57.79408 44.51276 56.69362 44.51276 55.59314 44.51276 54.70107 43.62067 54.70107 42.5202 54.70107 41.41972 55.59314 40.52765 56.69362 40.52765 57.79408 40.52765 58.68617 41.41972 58.68617 42.5202ZM56.69362 42.5202"/>
<path transform="matrix(1,0,0,-1,3.321,49.360006)" stroke-width=".3985" stroke-linecap="butt" stroke-miterlimit="10" stroke-linejoin="miter" fill="none" stroke="#000000" d="M58.68617 42.5202C58.68617 43.62067 57.79408 44.51276 56.69362 44.51276 55.59314 44.51276 54.70107 43.62067 54.70107 42.5202 54.70107 41.41972 55.59314 40.52765 56.69362 40.52765 57.79408 40.52765 58.68617 41.41972 58.68617 42.5202ZM56.69362 42.5202"/>
<path transform="matrix(1,0,0,-1,3.321,49.360006)" d="M79.94627 21.2601C79.94627 22.36057 79.05418 23.25266 77.95372 23.25266 76.85324 23.25266 75.96117 22.36057 75.96117 21.2601 75.96117 20.15962 76.85324 19.26755 77.95372 19.26755 79.05418 19.26755 79.94627 20.15962 79.94627 21.2601ZM77.95372 21.2601"/>
<path transform="matrix(1,0,0,-1,3.321,49.360006)" stroke-width=".3985" stroke-linecap="butt" stroke-miterlimit="10" stroke-linejoin="miter" fill="none" stroke="#000000" d="M79.94627 21.2601C79.94627 22.36057 79.05418 23.25266 77.95372 23.25266 76.85324 23.25266 75.96117 22.36057 75.96117 21.2601 75.96117 20.15962 76.85324 19.26755 77.95372 19.26755 79.05418 19.26755 79.94627 20.15962 79.94627 21.2601ZM77.95372 21.2601"/>
<path transform="matrix(1,0,0,-1,3.321,49.360006)" stroke-width="1.59404" stroke-linecap="butt" stroke-miterlimit="10" stroke-linejoin="miter" fill="none" stroke="#000000" d="M0-56.69362H42.5202"/>
<path transform="matrix(1,0,0,-1,3.321,49.360006)" stroke-width="1.59404" stroke-linecap="butt" stroke-miterlimit="10" stroke-linejoin="miter" fill="none" stroke="#000000" d="M42.5202-56.69362V-14.17339"/>
<path transform="matrix(1,0,0,-1,3.321,49.360006)" stroke-width=".3985" stroke-linecap="butt" stroke-miterlimit="10" stroke-linejoin="miter" fill="none" stroke="#929292" d="M0-56.69362 21.2601-35.43349"/>
<path transform="matrix(1,0,0,-1,3.321,49.360006)" stroke-width="1.59404" stroke-linecap="butt" stroke-miterlimit="10" stroke-linejoin="miter" fill="none" stroke="#000000" d="M21.2601-35.43349 42.5202-14.17339"/>
<path transform="matrix(1,0,0,-1,3.321,49.360006)" stroke-width="1.59404" stroke-linecap="butt" stroke-miterlimit="10" stroke-linejoin="miter" fill="none" stroke="#000000" d="M42.5202-14.17339H0"/>
<path transform="matrix(1,0,0,-1,3.321,49.360006)" stroke-width=".3985" stroke-linecap="butt" stroke-miterlimit="10" stroke-linejoin="miter" fill="none" stroke="#929292" d="M0-14.17339V-56.69362"/>
<path transform="matrix(1,0,0,-1,3.321,49.360006)" d="M1.99255-56.69362C1.99255-55.59314 1.10046-54.70107 0-54.70107-1.10046-54.70107-1.99255-55.59314-1.99255-56.69362-1.99255-57.79408-1.10046-58.68617 0-58.68617 1.10046-58.68617 1.99255-57.79408 1.99255-56.69362ZM0-56.69362"/>
<path transform="matrix(1,0,0,-1,3.321,49.360006)" stroke-width=".3985" stroke-linecap="butt" stroke-miterlimit="10" stroke-linejoin="miter" fill="none" stroke="#000000" d="M1.99255-56.69362C1.99255-55.59314 1.10046-54.70107 0-54.70107-1.10046-54.70107-1.99255-55.59314-1.99255-56.69362-1.99255-57.79408-1.10046-58.68617 0-58.68617 1.10046-58.68617 1.99255-57.79408 1.99255-56.69362ZM0-56.69362"/>
<path transform="matrix(1,0,0,-1,3.321,49.360006)" d="M44.51276-56.69362C44.51276-55.59314 43.62067-54.70107 42.5202-54.70107 41.41972-54.70107 40.52765-55.59314 40.52765-56.69362 40.52765-57.79408 41.41972-58.68617 42.5202-58.68617 43.62067-58.68617 44.51276-57.79408 44.51276-56.69362ZM42.5202-56.69362"/>
<path transform="matrix(1,0,0,-1,3.321,49.360006)" stroke-width=".3985" stroke-linecap="butt" stroke-miterlimit="10" stroke-linejoin="miter" fill="none" stroke="#000000" d="M44.51276-56.69362C44.51276-55.59314 43.62067-54.70107 42.5202-54.70107 41.41972-54.70107 40.52765-55.59314 40.52765-56.69362 40.52765-57.79408 41.41972-58.68617 42.5202-58.68617 43.62067-58.68617 44.51276-57.79408 44.51276-56.69362ZM42.5202-56.69362"/>
<path transform="matrix(1,0,0,-1,3.321,49.360006)" d="M44.51276-14.17339C44.51276-13.07292 43.62067-12.18083 42.5202-12.18083 41.41972-12.18083 40.52765-13.07292 40.52765-14.17339 40.52765-15.27386 41.41972-16.16594 42.5202-16.16594 43.62067-16.16594 44.51276-15.27386 44.51276-14.17339ZM42.5202-14.17339"/>
<path transform="matrix(1,0,0,-1,3.321,49.360006)" stroke-width=".3985" stroke-linecap="butt" stroke-miterlimit="10" stroke-linejoin="miter" fill="none" stroke="#000000" d="M44.51276-14.17339C44.51276-13.07292 43.62067-12.18083 42.5202-12.18083 41.41972-12.18083 40.52765-13.07292 40.52765-14.17339 40.52765-15.27386 41.41972-16.16594 42.5202-16.16594 43.62067-16.16594 44.51276-15.27386 44.51276-14.17339ZM42.5202-14.17339"/>
<path transform="matrix(1,0,0,-1,3.321,49.360006)" d="M1.99255-14.17339C1.99255-13.07292 1.10046-12.18083 0-12.18083-1.10046-12.18083-1.99255-13.07292-1.99255-14.17339-1.99255-15.27386-1.10046-16.16594 0-16.16594 1.10046-16.16594 1.99255-15.27386 1.99255-14.17339ZM0-14.17339"/>
<path transform="matrix(1,0,0,-1,3.321,49.360006)" stroke-width=".3985" stroke-linecap="butt" stroke-miterlimit="10" stroke-linejoin="miter" fill="none" stroke="#000000" d="M1.99255-14.17339C1.99255-13.07292 1.10046-12.18083 0-12.18083-1.10046-12.18083-1.99255-13.07292-1.99255-14.17339-1.99255-15.27386-1.10046-16.16594 0-16.16594 1.10046-16.16594 1.99255-15.27386 1.99255-14.17339ZM0-14.17339"/>
<path transform="matrix(1,0,0,-1,3.321,49.360006)" d="M23.25266-35.43349C23.25266-34.33302 22.36057-33.44093 21.2601-33.44093 20.15962-33.44093 19.26755-34.33302 19.26755-35.43349 19.26755-36.53397 20.15962-37.42604 21.2601-37.42604 22.36057-37.42604 23.25266-36.53397 23.25266-35.43349ZM21.2601-35.43349"/>
<path transform="matrix(1,0,0,-1,3.321,49.360006)" stroke-width=".3985" stroke-linecap="butt" stroke-miterlimit="10" stroke-linejoin="miter" fill="none" stroke="#000000" d="M23.25266-35.43349C23.25266-34.33302 22.36057-33.44093 21.2601-33.44093 20.15962-33.44093 19.26755-34.33302 19.26755-35.43349 19.26755-36.53397 20.15962-37.42604 21.2601-37.42604 22.36057-37.42604 23.25266-36.53397 23.25266-35.43349ZM21.2601-35.43349"/>
<path transform="matrix(1,0,0,-1,3.321,49.360006)" stroke-width="1.59404" stroke-linecap="butt" stroke-miterlimit="10" stroke-linejoin="miter" fill="none" stroke="#000000" d="M56.69362-56.69362H99.21382"/>
<path transform="matrix(1,0,0,-1,3.321,49.360006)" stroke-width=".3985" stroke-linecap="butt" stroke-miterlimit="10" stroke-linejoin="miter" fill="none" stroke="#929292" d="M99.21382-56.69362V-14.17339"/>
<path transform="matrix(1,0,0,-1,3.321,49.360006)" stroke-width="1.59404" stroke-linecap="butt" stroke-miterlimit="10" stroke-linejoin="miter" fill="none" stroke="#000000" d="M56.69362-56.69362 77.95372-35.43349"/>
<path transform="matrix(1,0,0,-1,3.321,49.360006)" stroke-width="1.59404" stroke-linecap="butt" stroke-miterlimit="10" stroke-linejoin="miter" fill="none" stroke="#000000" d="M77.95372-35.43349 99.21382-14.17339"/>
<path transform="matrix(1,0,0,-1,3.321,49.360006)" stroke-width=".3985" stroke-linecap="butt" stroke-miterlimit="10" stroke-linejoin="miter" fill="none" stroke="#929292" d="M99.21382-14.17339H56.69362"/>
<path transform="matrix(1,0,0,-1,3.321,49.360006)" stroke-width="1.59404" stroke-linecap="butt" stroke-miterlimit="10" stroke-linejoin="miter" fill="none" stroke="#000000" d="M56.69362-14.17339V-56.69362"/>
<path transform="matrix(1,0,0,-1,3.321,49.360006)" d="M58.68617-56.69362C58.68617-55.59314 57.79408-54.70107 56.69362-54.70107 55.59314-54.70107 54.70107-55.59314 54.70107-56.69362 54.70107-57.79408 55.59314-58.68617 56.69362-58.68617 57.79408-58.68617 58.68617-57.79408 58.68617-56.69362ZM56.69362-56.69362"/>
<path transform="matrix(1,0,0,-1,3.321,49.360006)" stroke-width=".3985" stroke-linecap="butt" stroke-miterlimit="10" stroke-linejoin="miter" fill="none" stroke="#000000" d="M58.68617-56.69362C58.68617-55.59314 57.79408-54.70107 56.69362-54.70107 55.59314-54.70107 54.70107-55.59314 54.70107-56.69362 54.70107-57.79408 55.59314-58.68617 56.69362-58.68617 57.79408-58.68617 58.68617-57.79408 58.68617-56.69362ZM56.69362-56.69362"/>
<path transform="matrix(1,0,0,-1,3.321,49.360006)" d="M101.20638-56.69362C101.20638-55.59314 100.31429-54.70107 99.21382-54.70107 98.11334-54.70107 97.22127-55.59314 97.22127-56.69362 97.22127-57.79408 98.11334-58.68617 99.21382-58.68617 100.31429-58.68617 101.20638-57.79408 101.20638-56.69362ZM99.21382-56.69362"/>
<path transform="matrix(1,0,0,-1,3.321,49.360006)" stroke-width=".3985" stroke-linecap="butt" stroke-miterlimit="10" stroke-linejoin="miter" fill="none" stroke="#000000" d="M101.20638-56.69362C101.20638-55.59314 100.31429-54.70107 99.21382-54.70107 98.11334-54.70107 97.22127-55.59314 97.22127-56.69362 97.22127-57.79408 98.11334-58.68617 99.21382-58.68617 100.31429-58.68617 101.20638-57.79408 101.20638-56.69362ZM99.21382-56.69362"/>
<path transform="matrix(1,0,0,-1,3.321,49.360006)" d="M101.20638-14.17339C101.20638-13.07292 100.31429-12.18083 99.21382-12.18083 98.11334-12.18083 97.22127-13.07292 97.22127-14.17339 97.22127-15.27386 98.11334-16.16594 99.21382-16.16594 100.31429-16.16594 101.20638-15.27386 101.20638-14.17339ZM99.21382-14.17339"/>
<path transform="matrix(1,0,0,-1,3.321,49.360006)" stroke-width=".3985" stroke-linecap="butt" stroke-miterlimit="10" stroke-linejoin="miter" fill="none" stroke="#000000" d="M101.20638-14.17339C101.20638-13.07292 100.31429-12.18083 99.21382-12.18083 98.11334-12.18083 97.22127-13.07292 97.22127-14.17339 97.22127-15.27386 98.11334-16.16594 99.21382-16.16594 100.31429-16.16594 101.20638-15.27386 101.20638-14.17339ZM99.21382-14.17339"/>
<path transform="matrix(1,0,0,-1,3.321,49.360006)" d="M58.68617-14.17339C58.68617-13.07292 57.79408-12.18083 56.69362-12.18083 55.59314-12.18083 54.70107-13.07292 54.70107-14.17339 54.70107-15.27386 55.59314-16.16594 56.69362-16.16594 57.79408-16.16594 58.68617-15.27386 58.68617-14.17339ZM56.69362-14.17339"/>
<path transform="matrix(1,0,0,-1,3.321,49.360006)" stroke-width=".3985" stroke-linecap="butt" stroke-miterlimit="10" stroke-linejoin="miter" fill="none" stroke="#000000" d="M58.68617-14.17339C58.68617-13.07292 57.79408-12.18083 56.69362-12.18083 55.59314-12.18083 54.70107-13.07292 54.70107-14.17339 54.70107-15.27386 55.59314-16.16594 56.69362-16.16594 57.79408-16.16594 58.68617-15.27386 58.68617-14.17339ZM56.69362-14.17339"/>
<path transform="matrix(1,0,0,-1,3.321,49.360006)" d="M79.94627-35.43349C79.94627-34.33302 79.05418-33.44093 77.95372-33.44093 76.85324-33.44093 75.96117-34.33302 75.96117-35.43349 75.96117-36.53397 76.85324-37.42604 77.95372-37.42604 79.05418-37.42604 79.94627-36.53397 79.94627-35.43349ZM77.95372-35.43349"/>
<path transform="matrix(1,0,0,-1,3.321,49.360006)" stroke-width=".3985" stroke-linecap="butt" stroke-miterlimit="10" stroke-linejoin="miter" fill="none" stroke="#000000" d="M79.94627-35.43349C79.94627-34.33302 79.05418-33.44093 77.95372-33.44093 76.85324-33.44093 75.96117-34.33302 75.96117-35.43349 75.96117-36.53397 76.85324-37.42604 77.95372-37.42604 79.05418-37.42604 79.94627-36.53397 79.94627-35.43349ZM77.95372-35.43349"/>
</svg>
