<svg xmlns="http://www.w3.org/2000/svg" xmlns:xlink="http://www.w3.org/1999/xlink" version="1.1" width="201.409pt" height="134.441pt" viewBox="0 0 201.409 134.441">
<path transform="matrix(1,0,0,-1,21.233,61.121995)" d="M1.39478 0C1.39478 .77031 .77031 1.39478 0 1.39478-.77031 1.39478-1.39478 .77031-1.39478 0-1.39478-.77031-.77031-1.39478 0-1.39478 .77031-1.39478 1.39478-.77031 1.39478 0ZM0 0"/>
<path transform="matrix(1,0,0,-1,21.233,61.121995)" stroke-width=".3985" stroke-linecap="butt" stroke-miterlimit="10" stroke-linejoin="miter" fill="none" stroke="#000000" d="M1.39478 0C1.39478 .77031 .77031 1.39478 0 1.39478-.77031 1.39478-1.39478 .77031-1.39478 0-1.39478-.77031-.77031-1.39478 0-1.39478 .77031-1.39478 1.39478-.77031 1.39478 0ZM0 0"/>
<path transform="matrix(1,0,0,-1,21.233,61.121995)" d="M21.23744 0C21.23744 .77031 20.61298 1.39478 19.84267 1.39478 19.07234 1.39478 18.44788 .77031 18.44788 0 18.44788-.77031 19.07234-1.39478 19.84267-1.39478 20.61298-1.39478 21.23744-.77031 21.23744 0ZM19.84267 0"/>
<path transform="matrix(1,0,0,-1,21.233,61.121995)" stroke-width=".3985" stroke-linecap="butt" stroke-miterlimit="10" stroke-linejoin="miter" fill="none" stroke="#000000" d="M21.23744 0C21.23744 .77031 20.61298 1.39478 19.84267 1.39478 19.07234 1.39478 18.44788 .77031 18.44788 0 18.44788-.77031 19.07234-1.39478 19.84267-1.39478 20.61298-1.39478 21.23744-.77031 21.23744 0ZM19.84267 0"/>
<path transform="matrix(1,0,0,-1,21.233,61.121995)" d="M41.08012 0C41.08012 .77031 40.45566 1.39478 39.68535 1.39478 38.91504 1.39478 38.29057 .77031 38.29057 0 38.29057-.77031 38.91504-1.39478 39.68535-1.39478 40.45566-1.39478 41.08012-.77031 41.08012 0ZM39.68535 0"/>
<path transform="matrix(1,0,0,-1,21.233,61.121995)" stroke-width=".3985" stroke-linecap="butt" stroke-miterlimit="10" stroke-linejoin="miter" fill="none" stroke="#000000" d="M41.08012 0C41.08012 .77031 40.45566 1.39478 39.68535 1.39478 38.91504 1.39478 38.29057 .77031 38.29057 0 38.29057-.77031 38.91504-1.39478 39.68535-1.39478 40.45566-1.39478 41.08012-.77031 41.08012 0ZM39.68535 0"/>
<path transform="matrix(1,0,0,-1,21.233,61.121995)" d="M60.9228 0C60.9228 .77031 60.29834 1.39478 59.52802 1.39478 58.7577 1.39478 58.13324 .77031 58.13324 0 58.13324-.77031 58.7577-1.39478 59.52802-1.39478 60.29834-1.39478 60.9228-.77031 60.9228 0ZM59.52802 0"/>
<path transform="matrix(1,0,0,-1,21.233,61.121995)" stroke-width=".3985" stroke-linecap="butt" stroke-miterlimit="10" stroke-linejoin="miter" fill="none" stroke="#000000" d="M60.9228 0C60.9228 .77031 60.29834 1.39478 59.52802 1.39478 58.7577 1.39478 58.13324 .77031 58.13324 0 58.13324-.77031 58.7577-1.39478 59.52802-1.39478 60.29834-1.39478 60.9228-.77031 60.9228 0ZM59.52802 0"/>
<path transform="matrix(1,0,0,-1,21.233,61.121995)" d="M80.76549 0C80.76549 .77031 80.14102 1.39478 79.37071 1.39478 78.60039 1.39478 77.97592 .77031 77.97592 0 77.97592-.77031 78.60039-1.39478 79.37071-1.39478 80.14102-1.39478 80.76549-.77031 80.76549 0ZM79.37071 0"/>
<path transform="matrix(1,0,0,-1,21.233,61.121995)" stroke-width=".3985" stroke-linecap="butt" stroke-miterlimit="10" stroke-linejoin="miter" fill="none" stroke="#000000" d="M80.76549 0C80.76549 .77031 80.14102 1.39478 79.37071 1.39478 78.60039 1.39478 77.97592 .77031 77.97592 0 77.97592-.77031 78.60039-1.39478 79.37071-1.39478 80.14102-1.39478 80.76549-.77031 80.76549 0ZM79.37071 0"/>
<path transform="matrix(1,0,0,-1,21.233,61.121995)" d="M100.60817 0C100.60817 .77031 99.9837 1.39478 99.2134 1.39478 98.44308 1.39478 97.81862 .77031 97.81862 0 97.81862-.77031 98.44308-1.39478 99.2134-1.39478 99.9837-1.39478 100.60817-.77031 100.60817 0ZM99.2134 0"/>
<path transform="matrix(1,0,0,-1,21.233,61.121995)" stroke-width=".3985" stroke-linecap="butt" stroke-miterlimit="10" stroke-linejoin="miter" fill="none" stroke="#000000" d="M100.60817 0C100.60817 .77031 99.9837 1.39478 99.2134 1.39478 98.44308 1.39478 97.81862 .77031 97.81862 0 97.81862-.77031 98.44308-1.39478 99.2134-1.39478 99.9837-1.39478 100.60817-.77031 100.60817 0ZM99.2134 0"/>
<path transform="matrix(1,0,0,-1,21.233,61.121995)" d="M120.45085 0C120.45085 .77031 119.82639 1.39478 119.05606 1.39478 118.28575 1.39478 117.66129 .77031 117.66129 0 117.66129-.77031 118.28575-1.39478 119.05606-1.39478 119.82639-1.39478 120.45085-.77031 120.45085 0ZM119.05606 0"/>
<path transform="matrix(1,0,0,-1,21.233,61.121995)" stroke-width=".3985" stroke-linecap="butt" stroke-miterlimit="10" stroke-linejoin="miter" fill="none" stroke="#000000" d="M120.45085 0C120.45085 .77031 119.82639 1.39478 119.05606 1.39478 118.28575 1.39478 117.66129 .77031 117.66129 0 117.66129-.77031 118.28575-1.39478 119.05606-1.39478 119.82639-1.39478 120.45085-.77031 120.45085 0ZM119.05606 0"/>
<path transform="matrix(1,0,0,-1,21.233,61.121995)" d="M140.29354 0C140.29354 .77031 139.66907 1.39478 138.89876 1.39478 138.12844 1.39478 137.50397 .77031 137.50397 0 137.50397-.77031 138.12844-1.39478 138.89876-1.39478 139.66907-1.39478 140.29354-.77031 140.29354 0ZM138.89876 0"/>
<path transform="matrix(1,0,0,-1,21.233,61.121995)" stroke-width=".3985" stroke-linecap="butt" stroke-miterlimit="10" stroke-linejoin="miter" fill="none" stroke="#000000" d="M140.29354 0C140.29354 .77031 139.66907 1.39478 138.89876 1.39478 138.12844 1.39478 137.50397 .77031 137.50397 0 137.50397-.77031 138.12844-1.39478 138.89876-1.39478 139.66907-1.39478 140.29354-.77031 140.29354 0ZM138.89876 0"/>
<path transform="matrix(1,0,0,-1,21.233,61.121995)" d="M160.1362 0C160.1362 .77031 159.51174 1.39478 158.74143 1.39478 157.97112 1.39478 157.34664 .77031 157.34664 0 157.34664-.77031 157.97112-1.39478 158.74143-1.39478 159.51174-1.39478 160.1362-.77031 160.1362 0ZM158.74143 0"/>
<path transform="matrix(1,0,0,-1,21.233,61.121995)" stroke-width=".3985" stroke-linecap="butt" stroke-miterlimit="10" stroke-linejoin="miter" fill="none" stroke="#000000" d="M160.1362 0C160.1362 .77031 159.51174 1.39478 158.74143 1.39478 157.97112 1.39478 157.34664 .77031 157.34664 0 157.34664-.77031 157.97112-1.39478 158.74143-1.39478 159.51174-1.39478 160.1362-.77031 160.1362 0ZM158.74143 0"/>
<path transform="matrix(1,0,0,-1,21.233,61.121995)" d="M179.9789 0C179.9789 .77031 179.35442 1.39478 178.5841 1.39478 177.8138 1.39478 177.18933 .77031 177.18933 0 177.18933-.77031 177.8138-1.39478 178.5841-1.39478 179.35442-1.39478 179.9789-.77031 179.9789 0ZM178.5841 0"/>
<path transform="matrix(1,0,0,-1,21.233,61.121995)" stroke-width=".3985" stroke-linecap="butt" stroke-miterlimit="10" stroke-linejoin="miter" fill="none" stroke="#000000" d="M179.9789 0C179.9789 .77031 179.35442 1.39478 178.5841 1.39478 177.8138 1.39478 177.18933 .77031 177.18933 0 177.18933-.77031 177.8138-1.39478 178.5841-1.39478 179.35442-1.39478 179.9789-.77031 179.9789 0ZM178.5841 0"/>
<path transform="matrix(1,0,0,-1,21.233,61.121995)" d="M90.68681 59.52802C90.68681 60.29834 90.06235 60.9228 89.29204 60.9228 88.52171 60.9228 87.89725 60.29834 87.89725 59.52802 87.89725 58.7577 88.52171 58.13324 89.29204 58.13324 90.06235 58.13324 90.68681 58.7577 90.68681 59.52802ZM89.29204 59.52802"/>
<path transform="matrix(1,0,0,-1,21.233,61.121995)" stroke-width=".3985" stroke-linecap="butt" stroke-miterlimit="10" stroke-linejoin="miter" fill="none" stroke="#000000" d="M90.68681 59.52802C90.68681 60.29834 90.06235 60.9228 89.29204 60.9228 88.52171 60.9228 87.89725 60.29834 87.89725 59.52802 87.89725 58.7577 88.52171 58.13324 89.29204 58.13324 90.06235 58.13324 90.68681 58.7577 90.68681 59.52802ZM89.29204 59.52802"/>
<path transform="matrix(1,0,0,-1,21.233,61.121995)" d="M90.68681-59.52802C90.68681-58.7577 90.06235-58.13324 89.29204-58.13324 88.52171-58.13324 87.89725-58.7577 87.89725-59.52802 87.89725-60.29834 88.52171-60.9228 89.29204-60.9228 90.06235-60.9228 90.68681-60.29834 90.68681-59.52802ZM89.29204-59.52802"/>
<path transform="matrix(1,0,0,-1,21.233,61.121995)" stroke-width=".3985" stroke-linecap="butt" stroke-miterlimit="10" stroke-linejoin="miter" fill="none" stroke="#000000" d="M90.68681-59.52802C90.68681-58.7577 90.06235-58.13324 89.29204-58.13324 88.52171-58.13324 87.89725-58.7577 87.89725-59.52802 87.89725-60.29834 88.52171-60.9228 89.29204-60.9228 90.06235-60.9228 90.68681-60.29834 90.68681-59.52802ZM89.29204-59.52802"/>
<path transform="matrix(1,0,0,-1,21.233,61.121995)" stroke-width=".3985" stroke-linecap="butt" stroke-miterlimit="10" stroke-linejoin="miter" fill="none" stroke="#000000" d="M0 0H19.84267"/>
<path transform="matrix(1,0,0,-1,21.233,61.121995)" stroke-width=".3985" stroke-linecap="butt" stroke-miterlimit="10" stroke-linejoin="miter" fill="none" stroke="#000000" d="M39.68535 0H59.52802"/>
<path transform="matrix(1,0,0,-1,21.233,61.121995)" stroke-width=".3985" stroke-linecap="butt" stroke-miterlimit="10" stroke-linejoin="miter" fill="none" stroke="#000000" d="M79.37071 0H99.2134"/>
<path transform="matrix(1,0,0,-1,21.233,61.121995)" stroke-width=".3985" stroke-linecap="butt" stroke-miterlimit="10" stroke-linejoin="miter" fill="none" stroke="#000000" d="M119.05606 0H138.89876"/>
<path transform="matrix(1,0,0,-1,21.233,61.121995)" stroke-width=".3985" stroke-linecap="butt" stroke-miterlimit="10" stroke-linejoin="miter" fill="none" stroke="#000000" d="M158.74143 0H178.5841"/>
<path transform="matrix(1,0,0,-1,21.233,61.121995)" stroke-width="1.59404" stroke-linecap="butt" stroke-miterlimit="10" stroke-linejoin="miter" fill="none" stroke="#000000" d="M19.84267 0H39.68535"/>
<path transform="matrix(1,0,0,-1,21.233,61.121995)" stroke-width="1.59404" stroke-linecap="butt" stroke-miterlimit="10" stroke-linejoin="miter" fill="none" stroke="#000000" d="M59.52802 0H79.37071"/>
<path transform="matrix(1,0,0,-1,21.233,61.121995)" stroke-width="1.59404" stroke-linecap="butt" stroke-miterlimit="10" stroke-linejoin="miter" fill="none" stroke="#000000" d="M99.2134 0H119.05606"/>
<path transform="matrix(1,0,0,-1,21.233,61.121995)" stroke-width="1.59404" stroke-linecap="butt" stroke-miterlimit="10" stroke-linejoin="miter" fill="none" stroke="#000000" d="M138.89876 0H158.74143"/>
<path transform="matrix(1,0,0,-1,21.233,61.121995)" stroke-width="1.59404" stroke-linecap="butt" stroke-miterlimit="10" stroke-linejoin="miter" fill="none" stroke="#000000" d="M0 0 89.29204-59.52802"/>
<path transform="matrix(1,0,0,-1,21.233,61.121995)" stroke-width="1.59404" stroke-linecap="butt" stroke-miterlimit="10" stroke-linejoin="miter" fill="none" stroke="#000000" d="M178.5841 0 89.29204 59.52802"/>
<path transform="matrix(1,0,0,-1,21.233,61.121995)" stroke-width=".3985" stroke-linecap="butt" stroke-dasharray="2.98883,2.98883" stroke-miterlimit="10" stroke-linejoin="miter" fill="none" stroke="#000000" d="M0 0 89.29204 59.52802"/>
<path transform="matrix(1,0,0,-1,21.233,61.121995)" stroke-width=".3985" stroke-linecap="butt" stroke-dasharray="2.98883,2.98883" stroke-miterlimit="10" stroke-linejoin="miter" fill="none" stroke="#000000" d="M19.84267 0 89.29204 59.52802"/>
<path transform="matrix(1,0,0,-1,21.233,61.121995)" stroke-width=".3985" stroke-linecap="butt" stroke-dasharray="2.98883,2.98883" stroke-miterlimit="10" stroke-linejoin="miter" fill="none" stroke="#000000" d="M59.52802 0 89.29204 59.52802"/>
<path transform="matrix(1,0,0,-1,21.233,61.121995)" stroke-width=".3985" stroke-linecap="butt" stroke-dasharray="2.98883,2.98883" stroke-miterlimit="10" stroke-linejoin="miter" fill="none" stroke="#000000" d="M99.2134 0 89.29204 59.52802"/>
<path transform="matrix(1,0,0,-1,21.233,61.121995)" stroke-width=".3985" stroke-linecap="butt" stroke-dasharray="2.98883,2.98883" stroke-miterlimit="10" stroke-linejoin="miter" fill="none" stroke="#000000" d="M138.89876 0 89.29204 59.52802"/>
<path transform="matrix(1,0,0,-1,21.233,61.121995)" stroke-width=".3985" stroke-linecap="butt" stroke-dasharray="2.98883,2.98883" stroke-miterlimit="10" stroke-linejoin="miter" fill="none" stroke="#000000" d="M39.68535 0 89.29204-59.52802"/>
<path transform="matrix(1,0,0,-1,21.233,61.121995)" stroke-width=".3985" stroke-linecap="butt" stroke-dasharray="2.98883,2.98883" stroke-miterlimit="10" stroke-linejoin="miter" fill="none" stroke="#000000" d="M79.37071 0 89.29204-59.52802"/>
<path transform="matrix(1,0,0,-1,21.233,61.121995)" stroke-width=".3985" stroke-linecap="butt" stroke-dasharray="2.98883,2.98883" stroke-miterlimit="10" stroke-linejoin="miter" fill="none" stroke="#000000" d="M119.05606 0 89.29204-59.52802"/>
<path transform="matrix(1,0,0,-1,21.233,61.121995)" stroke-width=".3985" stroke-linecap="butt" stroke-dasharray="2.98883,2.98883" stroke-miterlimit="10" stroke-linejoin="miter" fill="none" stroke="#000000" d="M158.74143 0 89.29204-59.52802"/>
<path transform="matrix(1,0,0,-1,21.233,61.121995)" stroke-width=".3985" stroke-linecap="butt" stroke-dasharray="2.98883,2.98883" stroke-miterlimit="10" stroke-linejoin="miter" fill="none" stroke="#000000" d="M178.5841 0 89.29204-59.52802"/>
<path transform="matrix(1,0,0,-1,21.233,61.121995)" stroke-width=".79701" stroke-linecap="butt" stroke-miterlimit="10" stroke-linejoin="miter" fill="none" stroke="#ff0000" d="M0 5.95285H78.66202C81.79314 5.95285 84.74863 3.4493 85.26332 .36093L95.2449-59.52802"/>
<path transform="matrix(1,0,0,-1,21.233,61.121995)" stroke-width=".79701" stroke-linecap="butt" stroke-miterlimit="10" stroke-linejoin="miter" fill="none" stroke="#ff0000" d="M85.32358 0 95.61339-61.73804C96.64279-67.91478 93.2536-70.10614 88.04329-66.63263L-11.40086-.3364C-16.61118 3.13708-15.7584 5.95285-9.49614 5.95285H79.37071"/>
<path transform="matrix(1,0,0,-1,21.233,61.121995)" stroke-width=".79701" stroke-linecap="butt" stroke-miterlimit="10" stroke-linejoin="miter" fill="none" stroke="#0000ff" d="M99.92206 5.95285H118.34738C121.4785 5.95285 124.01672 3.41461 124.01672 .2835V-.2835C124.01672-3.41461 121.4785-5.95285 118.34738-5.95285H99.92206C96.79094-5.95285 94.25272-3.41461 94.25272-.2835V.2835C94.25272 3.41461 96.79094 5.95285 99.92206 5.95285Z"/>
</svg>
