<svg xmlns="http://www.w3.org/2000/svg" xmlns:xlink="http://www.w3.org/1999/xlink" version="1.1" width="91.017pt" height="83.93pt" viewBox="0 0 91.017 83.93">
<path transform="matrix(1,0,0,-1,2.989,24.248002)" stroke-width="1.59404" stroke-linecap="butt" stroke-miterlimit="10" stroke-linejoin="miter" fill="none" stroke="#ff0000" d="M0 0V19.66605"/>
<path transform="matrix(0,-1,-1,-0,2.989,3.7849313)" stroke-width="1.59404" stroke-linecap="round" stroke-linejoin="round" fill="none" stroke="#ff0000" d="M-6.90997 1.32896C-5.64755 .53157-2.83437 .15504 0 0-2.83437-.15504-5.64755-.53157-6.90997-1.32896"/>
<path transform="matrix(1,0,0,-1,2.989,24.248002)" stroke-width="1.59404" stroke-linecap="butt" stroke-miterlimit="10" stroke-linejoin="miter" fill="none" stroke="#ff0000" d="M85.04042 0V19.66605"/>
<path transform="matrix(0,-1,-1,-0,88.02942,3.7849313)" stroke-width="1.59404" stroke-linecap="round" stroke-linejoin="round" fill="none" stroke="#ff0000" d="M-6.90997 1.32896C-5.64755 .53157-2.83437 .15504 0 0-2.83437-.15504-5.64755-.53157-6.90997-1.32896"/>
<path transform="matrix(1,0,0,-1,2.989,24.248002)" stroke-width="1.59404" stroke-linecap="butt" stroke-miterlimit="10" stroke-linejoin="miter" fill="none" stroke="#ff0000" d="M42.5202-56.69362V-37.02754"/>
<path transform="matrix(0,-1,-1,-0,45.509199,60.47851)" stroke-width="1.59404" stroke-linecap="round" stroke-linejoin="round" fill="none" stroke="#ff0000" d="M-6.90997 1.32896C-5.64755 .53157-2.83437 .15504 0 0-2.83437-.15504-5.64755-.53157-6.90997-1.32896"/>
<path transform="matrix(1,0,0,-1,2.989,24.248002)" stroke-width="1.59404" stroke-linecap="butt" stroke-miterlimit="10" stroke-linejoin="miter" fill="none" stroke="#0000ff" d="M0 0C21.31485-3.68379 35.05298-15.1324 41.96996-33.9375"/>
<path transform="matrix(.3452,.93849,.93849,-.3452,45.23407,58.93349)" stroke-width="1.59404" stroke-linecap="round" stroke-linejoin="round" fill="none" stroke="#0000ff" d="M-6.90997 1.32896C-5.64755 .53157-2.83437 .15504 0 0-2.83437-.15504-5.64755-.53157-6.90997-1.32896"/>
<path transform="matrix(1,0,0,-1,2.989,24.248002)" stroke-width="1.59404" stroke-linecap="butt" stroke-miterlimit="10" stroke-linejoin="miter" fill="none" stroke="#009a55" d="M42.5202-35.43349C21.20534-31.7497 7.46722-20.30109 .55025-1.49599"/>
<path transform="matrix(-.3452,-.93849,-.93849,.3452,3.26412,24.996)" stroke-width="1.59404" stroke-linecap="round" stroke-linejoin="round" fill="none" stroke="#009a55" d="M-6.90997 1.32896C-5.64755 .53157-2.83437 .15504 0 0-2.83437-.15504-5.64755-.53157-6.90997-1.32896"/>
<path transform="matrix(1,0,0,-1,2.989,24.248002)" stroke-width="1.59404" stroke-linecap="butt" stroke-miterlimit="10" stroke-linejoin="miter" fill="none" stroke="#0000ff" d="M85.04042 0C63.72546-3.68379 49.98746-15.13231 43.07045-33.9375"/>
<path transform="matrix(-.3452,.93849,.93849,.3452,45.784318,58.93349)" stroke-width="1.59404" stroke-linecap="round" stroke-linejoin="round" fill="none" stroke="#0000ff" d="M-6.90997 1.32896C-5.64755 .53157-2.83437 .15504 0 0-2.83437-.15504-5.64755-.53157-6.90997-1.32896"/>
<path transform="matrix(1,0,0,-1,2.989,24.248002)" stroke-width="1.59404" stroke-linecap="butt" stroke-miterlimit="10" stroke-linejoin="miter" fill="none" stroke="#009a55" d="M42.5202-35.43349C63.83516-31.7497 77.57317-20.30118 84.49017-1.49599"/>
<path transform="matrix(.3452,-.93849,-.93849,-.3452,87.75429,24.996)" stroke-width="1.59404" stroke-linecap="round" stroke-linejoin="round" fill="none" stroke="#009a55" d="M-6.90997 1.32896C-5.64755 .53157-2.83437 .15504 0 0-2.83437-.15504-5.64755-.53157-6.90997-1.32896"/>
<path transform="matrix(1,0,0,-1,2.989,24.248002)" d="M2.98883 21.2601C2.98883 22.9108 1.6507 24.24893 0 24.24893-1.6507 24.24893-2.98883 22.9108-2.98883 21.2601-2.98883 19.60939-1.6507 18.27127 0 18.27127 1.6507 18.27127 2.98883 19.60939 2.98883 21.2601ZM0 21.2601"/>
<path transform="matrix(1,0,0,-1,2.989,24.248002)" d="M2.98883 0C2.98883 1.6507 1.6507 2.98883 0 2.98883-1.6507 2.98883-2.98883 1.6507-2.98883 0-2.98883-1.6507-1.6507-2.98883 0-2.98883 1.6507-2.98883 2.98883-1.6507 2.98883 0ZM0 0"/>
<path transform="matrix(1,0,0,-1,2.989,24.248002)" d="M45.50903-35.43349C45.50903-33.78279 44.17091-32.44466 42.5202-32.44466 40.86949-32.44466 39.53137-33.78279 39.53137-35.43349 39.53137-37.0842 40.86949-38.42232 42.5202-38.42232 44.17091-38.42232 45.50903-37.0842 45.50903-35.43349ZM42.5202-35.43349"/>
<path transform="matrix(1,0,0,-1,2.989,24.248002)" d="M45.50903-56.69362C45.50903-55.04291 44.17091-53.70479 42.5202-53.70479 40.86949-53.70479 39.53137-55.04291 39.53137-56.69362 39.53137-58.34431 40.86949-59.68245 42.5202-59.68245 44.17091-59.68245 45.50903-58.34431 45.50903-56.69362ZM42.5202-56.69362"/>
<path transform="matrix(1,0,0,-1,2.989,24.248002)" d="M88.02925 21.2601C88.02925 22.9108 86.69113 24.24893 85.04042 24.24893 83.38971 24.24893 82.05159 22.9108 82.05159 21.2601 82.05159 19.60939 83.38971 18.27127 85.04042 18.27127 86.69113 18.27127 88.02925 19.60939 88.02925 21.2601ZM85.04042 21.2601"/>
<path transform="matrix(1,0,0,-1,2.989,24.248002)" d="M88.02925 0C88.02925 1.6507 86.69113 2.98883 85.04042 2.98883 83.38971 2.98883 82.05159 1.6507 82.05159 0 82.05159-1.6507 83.38971-2.98883 85.04042-2.98883 86.69113-2.98883 88.02925-1.6507 88.02925 0ZM85.04042 0"/>
</svg>
